<?xml version="1.0" encoding="UTF-8"?>
<svg width="18px" height="20px" viewBox="0 0 18 20" version="1.1" xmlns="http://www.w3.org/2000/svg" xmlns:xlink="http://www.w3.org/1999/xlink">
    <g id="前端v1.1" stroke="none" stroke-width="1" fill="none" fill-rule="evenodd">
        <g id="热门问题详情页--备份-3" transform="translate(-844.000000, -896.000000)" fill="currentColor">
            <g id="编组-3" transform="translate(608.000000, 138.000000)">
                <g id="编组-12" transform="translate(202.000000, 712.000000)">
                    <g id="编组-6" transform="translate(34.000000, 46.000000)">
                        <g id="编组-4" transform="translate(0.000000, -0.000000)">
                            <path d="M17.9156636,11.3346596 C17.6899456,12.3128964 17.0239844,13.0197262 16.4755457,13.3536154 C16.0241098,13.6289275 15.4980564,13.7753702 14.9608103,13.7753702 L13.0058316,13.7753702 C13.3117634,14.7321287 13.3901118,15.7923733 13.3975735,15.9017172 C13.3994389,15.925148 13.3994389,15.9446737 13.3994389,15.9622468 C13.3994389,16.7940409 13.2837818,17.5184438 13.0580638,18.1139772 C12.8360768,18.6880323 12.5096252,19.1429807 12.0861708,19.4690596 C11.6944289,19.7678026 11.2336658,19.9435338 10.7206704,19.9903954 C10.3084087,20.0235891 9.8681654,19.9708697 9.45030734,19.8302848 C8.85150185,19.6272177 8.41125855,19.2035104 8.14450096,18.5708782 C7.94489913,18.1022618 7.86655074,17.5867837 7.79566411,17.1279301 L7.79193325,17.1005942 C7.78820238,17.0634954 7.78074062,17.0283491 7.77514431,16.9912503 C7.74902819,16.8233295 7.72664292,16.6632188 7.69493049,16.5206813 C7.43936551,15.3237569 6.89279228,14.2322712 6.11117389,13.3633782 C5.69331585,12.9006195 5.24934167,12.5159635 4.78857856,12.2269834 C4.47518502,12.029774 4.11142468,11.9262879 3.74020257,11.9262879 L1.47742666,11.9262879 C0.66409583,11.9262879 0,11.2311735 0,10.3798537 L0,2.82341394 C0,1.97404667 0.658499501,1.28479003 1.46996491,1.28479003 L4.62815092,1.28479003 C5.26426518,1.28479003 5.79778035,1.1071063 6.47679967,0.8786558 L6.50664666,0.868892949 C7.6464291,0.482284402 9.06416175,0 11.7485266,0 L11.7783736,0 C13.4274205,0.00195257404 14.6511476,0.449090741 15.4103808,1.33360422 C15.7648139,1.74364358 16.0110517,2.24545366 16.1192471,2.78631513 C16.1379015,2.88199099 16.1546904,2.97376169 16.1621521,3.05967472 C16.6714166,3.46776152 16.9960028,3.9695716 17.1284489,4.55729469 C17.2552986,5.1313498 17.1638922,5.65073301 17.048235,6.0100056 C17.469824,6.43176038 17.7253889,6.92185504 17.8037373,7.46271651 C17.8895474,8.0562973 17.7347161,8.57177536 17.5780194,8.91933254 C17.7533705,9.2747 17.8746239,9.63397257 17.9417797,9.98934003 C18.0275899,10.4520987 18.0182627,10.903142 17.9156636,11.3346596 L17.9156636,11.3346596 Z M1.4550414,10.3837588 C1.4550414,10.3954742 1.46436859,10.4052371 1.47556122,10.4052371 L3.54433161,10.4052371 L3.54433161,2.80974596 L1.47369577,2.80974596 C1.46250315,2.80974596 1.4550414,2.81755624 1.4550414,2.82341394 L1.4550414,10.3837588 L1.4550414,10.3837588 Z" id="Shape" transform="translate(9.000000, 10.000000) scale(1, -1) translate(-9.000000, -10.000000) "></path>
                        </g>
                    </g>
                </g>
            </g>
        </g>
    </g>
</svg>