<?xml version="1.0" encoding="UTF-8"?>
<svg width="18px" height="20px" viewBox="0 0 18 20" version="1.1" xmlns="http://www.w3.org/2000/svg" xmlns:xlink="http://www.w3.org/1999/xlink">
    <title>Shape</title>
    <g id="前端v1.1" stroke="none" stroke-width="1" fill="none" fill-rule="evenodd">
        <g id="2" transform="translate(-1040.000000, -1073.000000)" fill="#727272">
            <g id="编组-2" transform="translate(666.000000, 346.000000)">
                <g id="编组" transform="translate(0.000000, 513.000000)">
                    <g id="编组-14" transform="translate(342.000000, 178.000000)">
                        <g id="编组-13" transform="translate(32.000000, 36.000000)">
                            <path d="M17.9156636,11.3346596 C17.6899456,12.3128964 17.0239844,13.0197262 16.4755457,13.3536154 C16.0241098,13.6289275 15.4980564,13.7753702 14.9608103,13.7753702 L13.0058316,13.7753702 C13.3117634,14.7321287 13.3901118,15.7923733 13.3975735,15.9017172 C13.3994389,15.925148 13.3994389,15.9446737 13.3994389,15.9622468 C13.3994389,16.7940409 13.2837818,17.5184438 13.0580638,18.1139772 C12.8360768,18.6880323 12.5096252,19.1429807 12.0861708,19.4690596 C11.6944289,19.7678026 11.2336658,19.9435338 10.7206704,19.9903954 C10.3084087,20.0235891 9.8681654,19.9708697 9.45030734,19.8302848 C8.85150185,19.6272177 8.41125855,19.2035104 8.14450096,18.5708782 C7.94489913,18.1022618 7.86655074,17.5867837 7.79566411,17.1279301 L7.79193325,17.1005942 C7.78820238,17.0634954 7.78074062,17.0283491 7.77514431,16.9912503 C7.74902819,16.8233295 7.72664292,16.6632188 7.69493049,16.5206813 C7.43936551,15.3237569 6.89279228,14.2322712 6.11117389,13.3633782 C5.69331585,12.9006195 5.24934167,12.5159635 4.78857856,12.2269834 C4.47518502,12.029774 4.11142468,11.9262879 3.74020257,11.9262879 L1.47742666,11.9262879 C0.66409583,11.9262879 0,11.2311735 0,10.3798537 L0,2.82341394 C0,1.97404667 0.658499501,1.28479003 1.46996491,1.28479003 L4.62815092,1.28479003 C5.26426518,1.28479003 5.79778035,1.1071063 6.47679967,0.8786558 L6.50664666,0.868892949 C7.6464291,0.482284402 9.06416175,0 11.7485266,0 L11.7783736,0 C13.4274205,0.00195257404 14.6511476,0.449090741 15.4103808,1.33360422 C15.7648139,1.74364358 16.0110517,2.24545366 16.1192471,2.78631513 C16.1379015,2.88199099 16.1546904,2.97376169 16.1621521,3.05967472 C16.6714166,3.46776152 16.9960028,3.9695716 17.1284489,4.55729469 C17.2552986,5.1313498 17.1638922,5.65073301 17.048235,6.0100056 C17.469824,6.43176038 17.7253889,6.92185504 17.8037373,7.46271651 C17.8895474,8.0562973 17.7347161,8.57177536 17.5780194,8.91933254 C17.7533705,9.2747 17.8746239,9.63397257 17.9417797,9.98934003 C18.0275899,10.4520987 18.0182627,10.903142 17.9156636,11.3346596 L17.9156636,11.3346596 Z M16.1658831,8.43704812 C16.2143844,8.36675565 16.421448,8.03481902 16.3654849,7.67554643 C16.3188489,7.39047144 16.1117854,7.1151593 15.748025,6.85742027 C15.4141117,6.61920692 15.3245706,6.16230592 15.5428269,5.81474874 C15.5521541,5.79717563 15.8095845,5.33246434 15.7069854,4.88337362 C15.6416951,4.59829863 15.4309006,4.34251217 15.0783329,4.12187193 C14.8320951,3.96957158 14.6977836,3.69230687 14.7276306,3.40137418 C14.729496,3.37013309 14.7556122,2.82341392 14.3228306,2.34112954 C13.8527403,1.8119835 12.9703883,1.53276621 11.7746427,1.53081365 L11.7466612,1.53081365 C9.30666865,1.53081365 8.00272772,1.97014155 6.95435173,2.32355643 C6.31637205,2.53833895 5.71010479,2.74335864 4.99750758,2.79803056 L4.99750758,2.79803056 L4.99750758,10.6532133 C5.18405135,10.7274109 5.36313336,10.8191816 5.52915733,10.9226677 C6.09998127,11.2780352 6.65401626,11.7466516 7.16701163,12.3207067 C8.1258466,13.3848565 8.79926961,14.7223658 9.11452858,16.1887447 C9.16302997,16.4113375 9.19660783,16.6436932 9.23018571,16.8623808 C9.3831516,17.879669 9.50067417,18.2389416 9.89614697,18.3717162 C10.0826907,18.4341984 10.7355939,18.6099296 11.2299349,18.2311313 C11.6925635,17.879669 11.9425321,17.1005942 11.946263,15.9856776 C11.9238777,15.6498359 11.8007588,14.654026 11.5321358,13.9882001 C11.3735736,13.5976865 11.4108824,13.156406 11.6366003,12.8068963 C11.8585874,12.4573865 12.231675,12.2465091 12.6290132,12.2465091 L14.9626757,12.2465091 C15.2443568,12.2465091 15.5148453,12.1723115 15.7461596,12.029774 C16.0427642,11.8520903 16.391601,11.4537663 16.5035273,10.9714819 C16.6191844,10.4774821 16.4904692,9.92295271 16.122978,9.31960907 C15.9532232,9.04039176 15.9700121,8.6928346 16.1658831,8.43704812 L16.1658831,8.43704812 Z M1.4550414,10.3837588 C1.4550414,10.3954742 1.46436859,10.4052371 1.47556122,10.4052371 L3.54433161,10.4052371 L3.54433161,2.80974596 L1.47369577,2.80974596 C1.46250315,2.80974596 1.4550414,2.81755624 1.4550414,2.82341394 L1.4550414,10.3837588 L1.4550414,10.3837588 Z" id="Shape" transform="translate(9.000000, 10.000000) scale(1, -1) translate(-9.000000, -10.000000) "></path>
                        </g>
                    </g>
                </g>
            </g>
        </g>
    </g>
</svg>