<?xml version="1.0" encoding="UTF-8"?>
<svg width="115px" height="113px" viewBox="0 0 115 113" version="1.1" xmlns="http://www.w3.org/2000/svg" xmlns:xlink="http://www.w3.org/1999/xlink">
    <title>编组 2</title>
    <defs>
        <path d="M12.9817524,0 C5.8110398,0 0,5.78595138 0,12.9203641 L0,12.9203641 L0,84.5346623 C0,91.6717051 5.81344205,97.4550265 12.9817524,97.4550265 L12.9817524,97.4550265 L65.0697127,97.4550265 C72.2404253,97.4550265 78.0517053,91.6717051 78.0538673,84.5346623 L78.0538673,84.5346623 L78.0538673,12.9203641 C78.0538673,5.78356049 72.2404253,0 65.0721149,0 L65.0721149,0 L12.9817524,0 Z" id="path-1"></path>
        <path d="M4.22795785,0 C1.89777654,0 3.41380084e-15,2.04660098 3.41380084e-15,4.56181621 L3.41380084e-15,4.56181621 C0.00240224878,7.07703143 1.89777654,9.12363242 4.22795785,9.12363242 L4.22795785,9.12363242 L23.2823549,9.12363242 C25.6127765,9.12363242 27.5107932,7.07703143 27.5107932,4.56181621 L27.5107932,4.56181621 C27.5107932,2.04660098 25.6151787,0 23.2823549,0 L23.2823549,0 L4.22795785,0 Z" id="path-3"></path>
        <linearGradient x1="33.1720534%" y1="40.3780297%" x2="66.8315962%" y2="59.6211139%" id="linearGradient-5">
            <stop stop-color="#C8CAF2" offset="0%"></stop>
            <stop stop-color="#AFAFE6" offset="100%"></stop>
        </linearGradient>
        <path d="M4.3240478,0 C1.94101701,0 3.41380084e-15,2.14701832 3.41380084e-15,4.78655977 L3.41380084e-15,4.78655977 C3.41380084e-15,7.42610123 1.94101701,9.57311955 4.3240478,9.57311955 L4.3240478,9.57311955 L49.3950394,9.57311955 C51.7780702,9.57311955 53.7190872,7.42610123 53.7190872,4.78655977 L53.7190872,4.78655977 C53.7190872,2.14701832 51.7802322,0 49.3950394,0 L49.3950394,0 L4.3240478,0 Z" id="path-6"></path>
        <linearGradient x1="35.1457121%" y1="45.4365297%" x2="64.8551346%" y2="54.5633854%" id="linearGradient-8">
            <stop stop-color="#C8CAF2" offset="0%"></stop>
            <stop stop-color="#AFAFE6" offset="100%"></stop>
        </linearGradient>
        <path d="M4.3240478,-6.79531524e-15 C1.94101701,-6.79531524e-15 3.41380084e-15,2.14725741 3.41380084e-15,4.78655977 L3.41380084e-15,4.78655977 C3.41380084e-15,7.42610123 1.94101701,9.57311955 4.3240478,9.57311955 L4.3240478,9.57311955 L49.3950394,9.57311955 C51.7780702,9.57311955 53.7190872,7.42610123 53.7190872,4.78655977 L53.7190872,4.78655977 C53.7190872,2.14725741 51.7802322,-6.79531524e-15 49.3950394,-6.79531524e-15 L49.3950394,-6.79531524e-15 L4.3240478,-6.79531524e-15 Z" id="path-9"></path>
        <path d="M4.3240478,3.39765762e-15 C1.94101701,3.39765762e-15 3.41380084e-15,2.14677923 3.41380084e-15,4.78655977 L3.41380084e-15,4.78655977 C0.00240224878,7.42610123 1.94101701,9.57311955 4.3240478,9.57311955 L4.3240478,9.57311955 L49.3950394,9.57311955 C51.7780702,9.57311955 53.7190872,7.42610123 53.7190872,4.78655977 L53.7190872,4.78655977 C53.7190872,2.14677923 51.7802322,3.39765762e-15 49.3950394,3.39765762e-15 L49.3950394,3.39765762e-15 L4.3240478,3.39765762e-15 Z" id="path-11"></path>
        <linearGradient x1="35.1464491%" y1="45.4364512%" x2="64.8558887%" y2="54.5633099%" id="linearGradient-13">
            <stop stop-color="#C8CAF2" offset="0%"></stop>
            <stop stop-color="#AFAFE6" offset="100%"></stop>
        </linearGradient>
        <path d="M0,21.7307901 C0,33.7139258 9.79396827,43.4615802 21.8340392,43.4615802 L21.8340392,43.4615802 C27.0132875,43.4615802 31.7745446,41.6540681 35.5220527,38.6439389 L35.5220527,38.6439389 L37.6456406,40.7672874 C37.4342427,41.9338021 37.7873733,43.1796944 38.7002278,44.0710178 L38.7002278,44.0710178 L49.1163785,55.8126737 C49.8418577,56.5227677 50.7859414,56.8792493 51.7300252,56.8792493 L51.7300252,56.8792493 C52.6957292,56.8792493 54.3268561,56.7020844 55.571221,55.3442985 L55.571221,55.3442985 C56.9570783,53.8330176 56.8492174,51.3897681 55.3814434,49.9528438 L55.3814434,49.9528438 L43.9299234,38.7828495 C43.0098621,37.8812453 41.7390725,37.5536935 40.5619706,37.7927824 L40.5619706,37.7927824 L38.5080479,35.7390087 C41.724659,31.9542315 43.6680783,27.0648635 43.6680783,21.7307901 L43.6680783,21.7307901 C43.6680783,9.74765445 33.87411,0 21.8340392,0 L21.8340392,0 C9.7942085,0 0,9.74765445 0,21.7307901 M7.45658021,21.7307901 C7.45658021,13.8408564 13.9066182,7.42131945 21.8340392,7.42131945 L21.8340392,7.42131945 C29.7612199,7.42131945 36.2114981,13.8408564 36.2114981,21.7307901 L36.2114981,21.7307901 C36.2114981,29.6207238 29.7612199,36.0400217 21.8340392,36.0400217 L21.8340392,36.0400217 C13.9066182,36.0400217 7.45658021,29.6207238 7.45658021,21.7307901" id="path-14"></path>
        <linearGradient x1="19.6637797%" y1="5.12452198%" x2="79.2334038%" y2="108.413273%" id="linearGradient-16">
            <stop stop-color="#C8CAF2" offset="0%"></stop>
            <stop stop-color="#ACB5EA" offset="100%"></stop>
        </linearGradient>
    </defs>
    <g id="前端v1.1" stroke="none" stroke-width="1" fill="none" fill-rule="evenodd">
        <g id="5" transform="translate(-903.000000, -536.000000)">
            <g id="编组-3" transform="translate(729.000000, 440.000000)">
                <g id="编组-2" transform="translate(174.000000, 96.000000)">
                    <ellipse id="椭圆形" fill="#A0A9E0" opacity="0.162722565" cx="55.8227049" cy="92.0740741" rx="55.8227049" ry="20.9259259"></ellipse>
                    <g id="编组" transform="translate(17.369792, 0.000000)">
                        <g>
                            <mask id="mask-2" fill="white">
                                <use xlink:href="#path-1"></use>
                            </mask>
                            <g id="Clip-2"></g>
                            <path d="M12.9817524,0 C5.8110398,0 0,5.78595138 0,12.9203641 L0,12.9203641 L0,84.5346623 C0,91.6717051 5.81344205,97.4550265 12.9817524,97.4550265 L12.9817524,97.4550265 L65.0697127,97.4550265 C72.2404253,97.4550265 78.0517053,91.6717051 78.0538673,84.5346623 L78.0538673,84.5346623 L78.0538673,12.9203641 C78.0538673,5.78356049 72.2404253,0 65.0721149,0 L65.0721149,0 L12.9817524,0 Z" id="Fill-1" fill="#E0E5FE" mask="url(#mask-2)"></path>
                        </g>
                        <g transform="translate(11.624482, 18.180320)">
                            <mask id="mask-4" fill="white">
                                <use xlink:href="#path-3"></use>
                            </mask>
                            <g id="Clip-6"></g>
                            <path d="M4.22795785,0 C1.89777654,0 3.41380084e-15,2.04660098 3.41380084e-15,4.56181621 L3.41380084e-15,4.56181621 C0.00240224878,7.07703143 1.89777654,9.12363242 4.22795785,9.12363242 L4.22795785,9.12363242 L23.2823549,9.12363242 C25.6127765,9.12363242 27.5107932,7.07703143 27.5107932,4.56181621 L27.5107932,4.56181621 C27.5107932,2.04660098 25.6151787,0 23.2823549,0 L23.2823549,0 L4.22795785,0 Z" id="Fill-5" fill="url(#linearGradient-5)" mask="url(#mask-4)"></path>
                        </g>
                        <path d="M15.6506748,27.3039763 L33.7876531,27.3039763 C36.007331,27.3039763 37.8114198,25.5084186 37.8114198,23.2992372 C37.8114198,21.0900558 36.007331,19.2944981 33.7876531,19.2944981 L15.6506748,19.2944981 C13.4309969,19.2944981 11.6269081,21.0900558 11.6269081,23.2992372 C11.6269081,25.5060277 13.4309969,27.3039763 15.6506748,27.3039763" id="Fill-7" fill="#FFFFFF"></path>
                        <g transform="translate(11.624482, 35.935062)">
                            <mask id="mask-7" fill="white">
                                <use xlink:href="#path-6"></use>
                            </mask>
                            <g id="Clip-10"></g>
                            <path d="M4.3240478,0 C1.94101701,0 3.41380084e-15,2.14701832 3.41380084e-15,4.78655977 L3.41380084e-15,4.78655977 C3.41380084e-15,7.42610123 1.94101701,9.57311955 4.3240478,9.57311955 L4.3240478,9.57311955 L49.3950394,9.57311955 C51.7780702,9.57311955 53.7190872,7.42610123 53.7190872,4.78655977 L53.7190872,4.78655977 C53.7190872,2.14701832 51.7802322,0 49.3950394,0 L49.3950394,0 L4.3240478,0 Z" id="Fill-9" fill="url(#linearGradient-8)" mask="url(#mask-7)"></path>
                        </g>
                        <g transform="translate(11.624482, 54.129727)">
                            <mask id="mask-10" fill="white">
                                <use xlink:href="#path-9"></use>
                            </mask>
                            <g id="Clip-12"></g>
                            <path d="M4.3240478,-6.79531524e-15 C1.94101701,-6.79531524e-15 3.41380084e-15,2.14725741 3.41380084e-15,4.78655977 L3.41380084e-15,4.78655977 C3.41380084e-15,7.42610123 1.94101701,9.57311955 4.3240478,9.57311955 L4.3240478,9.57311955 L49.3950394,9.57311955 C51.7780702,9.57311955 53.7190872,7.42610123 53.7190872,4.78655977 L53.7190872,4.78655977 C53.7190872,2.14725741 51.7802322,-6.79531524e-15 49.3950394,-6.79531524e-15 L49.3950394,-6.79531524e-15 L4.3240478,-6.79531524e-15 Z" id="Fill-11" fill="url(#linearGradient-8)" mask="url(#mask-10)"></path>
                        </g>
                        <g transform="translate(11.624482, 72.295702)">
                            <mask id="mask-12" fill="white">
                                <use xlink:href="#path-11"></use>
                            </mask>
                            <g id="Clip-14"></g>
                            <path d="M4.3240478,3.39765762e-15 C1.94101701,3.39765762e-15 3.41380084e-15,2.14677923 3.41380084e-15,4.78655977 L3.41380084e-15,4.78655977 C0.00240224878,7.42610123 1.94101701,9.57311955 4.3240478,9.57311955 L4.3240478,9.57311955 L49.3950394,9.57311955 C51.7780702,9.57311955 53.7190872,7.42610123 53.7190872,4.78655977 L53.7190872,4.78655977 C53.7190872,2.14677923 51.7802322,3.39765762e-15 49.3950394,3.39765762e-15 L49.3950394,3.39765762e-15 L4.3240478,3.39765762e-15 Z" id="Fill-13" fill="url(#linearGradient-13)" mask="url(#mask-12)"></path>
                        </g>
                        <g transform="translate(11.624338, 37.116113)" fill="#FFFFFF">
                            <path d="M4.21846897,8.39202038 L48.1796216,8.39202038 C50.5049984,8.39202038 52.3955682,6.51039074 52.3955682,4.19601019 C52.3955682,1.88162964 50.5049984,0 48.1796216,0 L4.21846897,0 C1.89309215,0 0.00252236122,1.88162964 0.00252236122,4.19601019 C0.00252236122,6.51039074 1.89309215,8.39202038 4.21846897,8.39202038" id="Fill-15"></path>
                            <path d="M48.2998542,18.440879 L4.09847664,18.440879 C1.84036279,18.440879 0,20.2699091 0,22.5199747 C0,24.7698013 1.83796054,26.5962014 4.09847664,26.5962014 L48.2972117,26.5962014 C50.5555658,26.5962014 52.3956883,24.7671713 52.3956883,22.5199747 C52.3956883,20.2723 50.5577278,18.440879 48.2998542,18.440879" id="Fill-17"></path>
                            <path d="M48.347707,36.7433256 L4.04783724,36.7433256 C1.81614812,36.7433256 4.80449756e-05,38.5508377 4.80449756e-05,40.7719735 C4.80449756e-05,42.9931094 1.81614812,44.8003824 4.04783724,44.8003824 L48.347707,44.8003824 C50.5793961,44.8003824 52.3957364,42.9931094 52.3957364,40.7719735 C52.3957364,38.5508377 50.5793961,36.7433256 48.347707,36.7433256" id="Fill-19"></path>
                        </g>
                        <g transform="translate(41.080856, 16.138501)">
                            <mask id="mask-15" fill="white">
                                <use xlink:href="#path-14"></use>
                            </mask>
                            <g id="Clip-22"></g>
                            <path d="M0,21.7307901 C0,33.7139258 9.79396827,43.4615802 21.8340392,43.4615802 L21.8340392,43.4615802 C27.0132875,43.4615802 31.7745446,41.6540681 35.5220527,38.6439389 L35.5220527,38.6439389 L37.6456406,40.7672874 C37.4342427,41.9338021 37.7873733,43.1796944 38.7002278,44.0710178 L38.7002278,44.0710178 L49.1163785,55.8126737 C49.8418577,56.5227677 50.7859414,56.8792493 51.7300252,56.8792493 L51.7300252,56.8792493 C52.6957292,56.8792493 54.3268561,56.7020844 55.571221,55.3442985 L55.571221,55.3442985 C56.9570783,53.8330176 56.8492174,51.3897681 55.3814434,49.9528438 L55.3814434,49.9528438 L43.9299234,38.7828495 C43.0098621,37.8812453 41.7390725,37.5536935 40.5619706,37.7927824 L40.5619706,37.7927824 L38.5080479,35.7390087 C41.724659,31.9542315 43.6680783,27.0648635 43.6680783,21.7307901 L43.6680783,21.7307901 C43.6680783,9.74765445 33.87411,0 21.8340392,0 L21.8340392,0 C9.7942085,0 0,9.74765445 0,21.7307901 M7.45658021,21.7307901 C7.45658021,13.8408564 13.9066182,7.42131945 21.8340392,7.42131945 L21.8340392,7.42131945 C29.7612199,7.42131945 36.2114981,13.8408564 36.2114981,21.7307901 L36.2114981,21.7307901 C36.2114981,29.6207238 29.7612199,36.0400217 21.8340392,36.0400217 L21.8340392,36.0400217 C13.9066182,36.0400217 7.45658021,29.6207238 7.45658021,21.7307901" id="Fill-21" fill="url(#linearGradient-16)" mask="url(#mask-15)"></path>
                        </g>
                        <path d="M61.6562133,52.2695196 C53.9759837,52.2695196 47.7279748,46.0508174 47.7279748,38.4073843 C47.7279748,30.7634731 53.9759837,24.5450099 61.6562133,24.5450099 C69.3362026,24.5450099 75.5842115,30.7634731 75.5842115,38.4073843 C75.5842115,46.0508174 69.3362026,52.2695196 61.6562133,52.2695196 M95.1868017,66.7917794 L83.0624119,54.9236455 C82.1711776,54.0507319 80.9390642,53.7327437 79.8001581,53.964899 L77.8113363,51.9756794 C80.927053,48.3078166 82.810416,43.5717046 82.810416,38.4023635 C82.810416,26.7922065 73.3215333,17.3481949 61.6562133,17.3481949 C49.990653,17.3481949 40.5017703,26.7922065 40.5017703,38.4023635 C40.5017703,50.0127595 49.990653,59.4567711 61.6562133,59.4567711 C66.674511,59.4567711 71.2868286,57.7064012 74.9163863,54.7895166 L76.9753537,56.8459203 C76.7711626,57.9741808 77.1122819,59.1815797 77.9963095,60.0470816 L90.1202188,71.9154545 C90.8243179,72.6042697 91.7393345,72.9483186 92.6548315,72.9483186 C93.5893063,72.9483186 94.5235408,72.5896852 95.2300422,71.8748094 C96.628151,70.4620331 96.608933,68.1856677 95.1868017,66.7917794" id="Fill-23" fill="#FFFFFF"></path>
                    </g>
                </g>
            </g>
        </g>
    </g>
</svg>